<?xml version="1.0" encoding="UTF-8" standalone="no"?>
<svg
   xmlns:dc="http://purl.org/dc/elements/1.1/"
   xmlns:cc="http://creativecommons.org/ns#"
   xmlns:rdf="http://www.w3.org/1999/02/22-rdf-syntax-ns#"
   xmlns:svg="http://www.w3.org/2000/svg"
   xmlns="http://www.w3.org/2000/svg"
   xmlns:sodipodi="http://sodipodi.sourceforge.net/DTD/sodipodi-0.dtd"
   xmlns:inkscape="http://www.inkscape.org/namespaces/inkscape"
   version="1.1"
   width="297mm"
   height="210mm"
   viewBox="0 0 1052.3622 744.09449"
   xml:space="preserve"
   id="svg2"
   inkscape:version="0.91 r13725"
   sodipodi:docname="Denopa-2.svg"
   inkscape:export-filename="C:\Users\Mahdi\Desktop\Denopa-3.png"
   inkscape:export-xdpi="25.656601"
   inkscape:export-ydpi="25.656601"><metadata
     id="metadata21"><rdf:RDF><cc:Work
         rdf:about=""><dc:format>image/svg+xml</dc:format><dc:type
           rdf:resource="http://purl.org/dc/dcmitype/StillImage" /><dc:title /></cc:Work></rdf:RDF></metadata><sodipodi:namedview
     pagecolor="#ffffff"
     bordercolor="#666666"
     borderopacity="1"
     objecttolerance="10"
     gridtolerance="10"
     guidetolerance="10"
     inkscape:pageopacity="0"
     inkscape:pageshadow="2"
     inkscape:window-width="1366"
     inkscape:window-height="715"
     id="namedview19"
     showgrid="false"
     inkscape:zoom="0.88615384"
     inkscape:cx="331.20115"
     inkscape:cy="300.64198"
     inkscape:window-x="-8"
     inkscape:window-y="-8"
     inkscape:window-maximized="1"
     inkscape:current-layer="svg2"
     units="mm" /><desc
     id="desc4">Created with Fabric.js 2.3.3</desc><defs
     id="defs6" /><g
     id="logo-logo"
     transform="matrix(2.2399834,0,0,2.2399834,533.76736,284.22274)"><path
       d="m 0,0 c 0,-43.998 -49.729,-79.666 -111.074,-79.666 -61.344,0 -111.074,35.668 -111.074,79.666 0,43.998 49.73,79.666 111.074,79.666 C -49.729,79.666 0,43.998 0,0"
       style="opacity:1;fill:#21518d;fill-rule:nonzero;stroke:none;stroke-width:1;stroke-linecap:butt;stroke-linejoin:miter;stroke-miterlimit:4;stroke-dasharray:none"
       transform="matrix(1.483,0,0,-1.483,164.72274,0)"
       id="path10"
       inkscape:connector-curvature="0" /><path
       d="m 0,0 c 0,-2.23 0.287,-4.527 0.936,-6.692 7.63,1.707 11.804,9.645 11.804,15.221 0,3.214 -1.439,5.707 -4.39,5.707 C 3.096,14.236 0,7.348 0,0 M -12.959,16.927 C 7.127,20.404 16.99,39.43 16.99,51.108 c 0,5.445 -2.09,9.251 -6.263,9.251 -12.311,0 -22.247,-24.078 -23.686,-43.432 m -9.43,27.293 c -1.726,0.786 -3.527,1.114 -5.256,1.114 -6.478,0 -12.453,-4.985 -12.453,-12.727 0,-9.055 6.84,-16.205 20.301,-16.27 0.145,21.191 12.022,47.302 30.524,47.302 8.566,0 12.668,-5.905 12.668,-13.647 0,-13.777 -12.885,-33.46 -36.497,-36.542 0,-10.17 2.159,-18.435 8.495,-20.142 -0.289,1.575 -0.432,3.214 -0.432,4.855 0,9.711 5.039,19.354 13.965,19.354 6.119,0 9.142,-4.527 9.142,-9.973 0,-7.083 -5.255,-15.614 -15.91,-17.45 1.729,-3.542 4.535,-6.233 8.569,-7.086 l -2.018,-4.593 c -6.404,1.247 -10.438,5.774 -12.381,11.416 -10.365,0.919 -15.404,10.891 -16.053,23.226 -17.134,0 -26.42,9.446 -26.42,20.009 0,11.219 9.071,17.977 18.645,17.977 2.736,0 5.473,-0.592 8.135,-1.706 z"
       style="opacity:1;fill:#fffffa;fill-rule:nonzero;stroke:none;stroke-width:1;stroke-linecap:butt;stroke-linejoin:miter;stroke-miterlimit:4;stroke-dasharray:none"
       transform="matrix(1.742,0,0,-1.742,-59.59675,31.910034)"
       id="path12"
       inkscape:connector-curvature="0" /><path
       d="m 0,0 -1.609,-1.609 c -5.963,-5.964 -11.936,-8.79 -17.768,-8.39 -8.582,0.586 -14.324,8.027 -14.377,8.095 L -35.93,1 -38.383,-1.675 c -4.633,-5.055 -9.512,-7.617 -14.5,-7.617 -0.064,0 -0.129,0 -0.191,10e-4 -8.26,0.109 -14.483,7.16 -14.539,7.224 l -1.914,2.227 -2.274,-1.857 c -8.742,-7.141 -16.381,-10.016 -22.715,-8.548 -7.187,1.667 -10.47,8.664 -10.504,8.735 l -2.74,-1.242 -2.748,-1.23 c 0.176,-0.396 4.453,-9.719 14.545,-12.109 1.549,-0.367 3.137,-0.549 4.764,-0.549 6.453,0 13.513,2.878 21.074,8.6 3.018,-2.71 9.131,-7.147 16.912,-7.271 5.971,-0.096 11.67,2.333 16.951,7.231 2.987,-2.929 8.715,-7.372 16.408,-7.922 6.739,-0.478 13.403,2.103 19.854,7.673 z"
       style="opacity:1;fill:#fffffa;fill-rule:nonzero;stroke:none;stroke-width:1;stroke-linecap:butt;stroke-linejoin:miter;stroke-miterlimit:4;stroke-dasharray:none"
       transform="matrix(1.742,0,0,-1.742,125.34547,42.66556)"
       id="path14"
       inkscape:connector-curvature="0" /></g><g
     id="text-logo"
     transform="matrix(2.2355035,0,0,2.2355035,533.76736,652.64625)"><text
       x="-128.53377"
       y="15.896066"
       xml:space="preserve"
       font-size="65"
       font-style="normal"
       font-weight="normal"
       style="font-style:normal;font-weight:normal;font-size:65px;font-family:Coiny;white-space:pre;opacity:1;fill:#24548c;fill-rule:nonzero;stroke:none;stroke-width:1;stroke-linecap:butt;stroke-linejoin:miter;stroke-miterlimit:4;stroke-dasharray:none"
       id="text17">Denopa</text>
</g><g
     id="logo-logo-5"
     transform="translate(668.82639,219.51118)"
     style="fill:#ffffff"><path
       inkscape:connector-curvature="0"
       d="m 2157.5,5741.81 c -34.92,-39.39 -71.01,-79.03 -105.93,-118.43 7.6,-89.32 -14.15,-218.12 -47.79,-313.6 -29.67,-84.25 -75.75,-138.43 -17.46,-175.95 133.47,0 202.15,0 327.52,0 7.03,-0.02 16.82,5.19 9.51,21.96 -63.11,80.4 -113.87,93.37 -203.28,136.38 75.99,72.87 169.59,153.24 183.54,233.6 62.79,29.99 148.2,69.24 221.9,130.61 -127.08,7.24 -255.66,23.24 -368.01,85.43"
       style="opacity:1;fill:#ffffff;fill-rule:evenodd;stroke:none;stroke-width:1;stroke-linecap:butt;stroke-linejoin:miter;stroke-miterlimit:4;stroke-dasharray:none"
       transform="matrix(0.101,0,0,-0.101,-286.58665,621.44362)"
       id="path10-0" /><path
       inkscape:connector-curvature="0"
       d="m 3571.12,5474.22 c 70.1,-121.99 303.46,-180.92 282.16,-348.45 120.5,0 241.03,0 361.55,0 16.44,0.59 15.91,14.27 1.47,35.89 -48.45,54.69 -105.41,94.11 -180.36,101.11 -133.84,148.27 -101.79,133.1 -174.68,302.16 -85.87,-43.24 -183.06,-70.81 -290.14,-90.71"
       style="opacity:1;fill:#ffffff;fill-rule:evenodd;stroke:none;stroke-width:1;stroke-linecap:butt;stroke-linejoin:miter;stroke-miterlimit:4;stroke-dasharray:none"
       transform="matrix(0.101,0,0,-0.101,-286.65892,621.43955)"
       id="path12-5" /><path
       inkscape:connector-curvature="0"
       d="m 3608.04,6431.29 c -116.52,76.67 -49.91,207.41 5.07,279.17 -318.26,-15.1 -286.93,-338.66 -44.09,-451.61 70.91,33.91 111.84,124.52 39.02,172.44 z M 1242.3,5141.68 c -145.28,198.36 243.94,252.97 313.02,884.54 7.83,71.53 58.42,324.7 100.42,350.94 496.71,158.23 904.16,1027.58 1185.3,-180.92 -116.46,835.94 -491.18,657.69 -535.06,662.17 441.14,336.11 1469.37,575.61 1523.12,-163.86 250.64,-28.76 388.06,-159.03 392.19,-397.56 139.04,11.08 109.99,152.23 80.48,237.68 148.24,-57.26 279.75,-425.54 -2.58,-433.82 62.43,4.21 92.44,-62.85 115.52,-97.96 -81.49,-8.95 -144.2,-51.42 -231.04,16.03 -120.12,-387.46 -373.64,-483.66 -703.15,-531.2 -14.36,0.14 -36.99,8.18 -54.36,81.28 -48.36,-3.58 -121.94,31.86 -145.06,-10.74 -43.17,-79.51 -6.04,-146.39 -8.72,-236.82 -21.04,-98.5 -524.51,-78.19 -642.83,-21.05 -46.67,76.72 255.48,345.54 342.62,158.48 33.15,-8.05 16.69,-8 49.82,-16.07 -63.13,68.37 -105.28,228.85 -382.91,247.09 -156.23,-14.88 -314.29,-9.85 -491.59,85.96 -136.62,-171.41 -302.27,-268.76 -510.39,-257.88 -13.88,-79.96 -132.85,-144.2 -208.9,-216.61 l -0.59,-1.14 c 70.62,-26.32 155.13,-90.22 202.69,-136.38 7.3,-16.75 -2.49,-21.97 -9.51,-21.95 -125.57,0 -252.42,-0.21 -378.49,-0.21 l 0,0"
       style="opacity:1;fill:#ffffff;fill-rule:evenodd;stroke:none;stroke-width:1;stroke-linecap:butt;stroke-linejoin:miter;stroke-miterlimit:4;stroke-dasharray:none"
       transform="matrix(0.101,0,0,-0.101,-286.61265,621.47512)"
       id="path14-4" /><path
       inkscape:connector-curvature="0"
       d="m 1606.87,6352 c -25.43,-47.18 -41.07,-84.42 -49.73,-123.93 -96.68,-88.48 -117.41,-204.38 -152.11,-325.8 65.59,-45.86 40.9,-147.48 -67.71,-245.6 -37.56,101.39 -30.16,224.11 45.67,248.83 27.05,247.55 47.14,289.39 223.88,446.5"
       style="opacity:1;fill:#ffffff;fill-rule:evenodd;stroke:none;stroke-width:1;stroke-linecap:butt;stroke-linejoin:miter;stroke-miterlimit:4;stroke-dasharray:none"
       transform="matrix(0.101,0,0,-0.101,-286.55257,621.46833)"
       id="path16" /></g><g
     id="logo-logo-6"
     transform="matrix(0.2630777,0,0,0.2630777,544.48785,482.89442)"
     style="fill:#ffffff"><path
       inkscape:connector-curvature="0"
       d="m 0,0 -26.906,0 0,10.718 c 0,10.861 -8.836,19.697 -19.701,19.697 l -30.827,0 c -10.879,0 -19.696,-8.818 -19.696,-19.697 l 0,-10.718 -26.906,0 c -7.595,0 -13.751,-6.156 -13.751,-13.751 l 0,-80.141 c 0,-6.761 4.878,-12.377 11.305,-13.526 1.639,7.054 5.863,23.406 13.865,43.414 7.274,18.185 18.84,42.063 35.797,64.004 l -10.462,0 0,10.718 c 0,5.442 4.411,9.853 9.853,9.853 l 30.827,0 c 5.441,0 9.852,-4.411 9.852,-9.853 l 0,-10.718 -1.768,0 c -0.142,0.925 -0.352,1.709 -0.618,2.364 -1.938,4.823 -6.788,2.748 -10.187,0.481 -1.832,-1.219 -3.491,-2.68 -4.952,-4.32 -0.898,-1.008 -1.786,-2.025 -2.657,-3.051 -29.631,-34.825 -44.229,-79.083 -49.721,-99.251 -0.385,-1.411 -0.724,-2.702 -1.022,-3.866 l 38.078,0 c -0.073,-2.505 0.037,-4.539 0.289,-6.161 l 0,-0.004 c 1.47,-9.464 7.878,-5.121 12.665,-0.27 3.156,3.192 5.808,6.848 7.984,10.778 0.371,0.673 0.742,1.355 1.118,2.052 7.86,14.722 15.578,34.711 21.569,61.768 l -10.352,2.231 c -0.87,0.188 -1.122,1.301 -0.421,1.846 l 24.158,18.776 c 0.513,0.398 1.259,0.238 1.566,-0.339 L 3.257,-44.024 c 0.412,-0.787 -0.28,-1.699 -1.145,-1.511 l -10.178,2.194 c -5.511,-24.927 -12.94,-46.548 -22.106,-64.302 l 30.172,0 c 7.595,0 13.751,6.156 13.751,13.751 l 0,80.141 C 13.751,-6.156 7.595,0 0,0"
       style="opacity:1;fill:#ffffff;fill-rule:nonzero;stroke:none;stroke-width:1;stroke-linecap:butt;stroke-linejoin:miter;stroke-miterlimit:4;stroke-dasharray:none"
       transform="matrix(1.728,0,0,-1.728,107.1671,-76.896349)"
       id="path10-8" /></g></svg>